<svg width="339" height="91" viewBox="0 0 339 91" fill="none" xmlns="http://www.w3.org/2000/svg">
<path fill-rule="evenodd" clip-rule="evenodd" d="M81.5454 158.031C79.0486 125.901 3.63605 120.619 0.593836 88.5099C-1.5368 66.0221 46.0979 64.8233 72.2113 59.5148C94.3146 55.0216 120.943 69.8896 140.292 60.1114C164.599 47.8275 159.437 7.53901 187.064 1.47179C210.798 -3.74047 227.543 24.9871 248.471 36.3537C265.778 45.7544 285.874 51.267 300.762 63.2269C315.416 74.9989 331.119 88.6097 334.196 105.219C337.404 122.54 323.067 138.193 317.756 154.973C313.923 167.081 302.317 179.059 307.001 191.137C317.829 219.062 361.955 237.263 360.947 266.358C360.232 286.982 321.6 289.901 303.113 303.28C282.182 318.428 270.412 343.958 243.884 351.074C217.837 358.062 183.644 356.168 162.483 341.008C137.402 323.039 154.121 278.065 124.664 265.663C92.0488 251.932 50.8122 295.659 19.0196 280.607C-5.59352 268.955 -0.704698 232.721 10.147 211.447C22.8056 186.632 83.6584 185.223 81.5454 158.031Z" fill="#FFD700"/>
</svg>
