<svg width="371" height="380" viewBox="0 0 371 380" fill="none" xmlns="http://www.w3.org/2000/svg">
<path fill-rule="evenodd" clip-rule="evenodd" d="M182.162 33.0797C204.532 42.7151 219.27 64.8528 241.624 74.5318C268.892 86.3389 308.583 70.5316 326.235 95.4641C343.202 119.428 312.563 154.133 318.674 183.356C327.339 224.794 383.706 257.729 368.37 296.951C354.016 333.665 296.395 313.6 261.735 328.986C232.696 341.876 213.317 384.507 182.162 379.61C149.733 374.513 143.899 322.651 115.176 305.949C85.4836 288.684 41.0134 309.576 17.4503 283.837C-5.22974 259.063 -9.68386 215.136 2.94651 183.356C15.7905 151.038 66.9051 153.445 81.7338 122.09C98.1806 87.3143 57.9068 32.5254 86.0956 7.54141C111.832 -15.2695 151.055 19.681 182.162 33.0797Z" fill="#FFD700"/>
</svg>
