<svg width="300" height="58" viewBox="0 0 300 58" fill="none" xmlns="http://www.w3.org/2000/svg">
<path fill-rule="evenodd" clip-rule="evenodd" d="M134.905 -211.077C160.895 -218.885 188.679 -253.828 210.723 -237.878C235.178 -220.184 204.11 -173.385 221.382 -148.506C237.044 -125.948 281.134 -139.316 295.439 -115.856C308.125 -95.0508 290.95 -67.921 284.956 -44.2476C279.077 -21.0286 280.365 9.259 260.458 22.2981C238.57 36.6348 208.506 16.1012 183.179 22.4163C164.399 27.099 153.584 48.5246 134.905 53.6044C114.479 59.1596 92.0469 60.1103 72.2484 52.5857C52.0451 44.9073 35.8911 28.7817 23.1939 11.1478C10.7365 -6.15323 0.508314 -26.3541 0.00886585 -47.7416C-0.472567 -68.3576 18.8062 -84.6736 20.4763 -105.226C22.5092 -130.244 -2.53215 -157.658 10.6687 -178.924C23.2247 -199.153 55.1872 -192.107 78.0834 -198.033C97.1381 -202.964 116.051 -205.413 134.905 -211.077Z" fill="#FFD700"/>
</svg>
