<svg width="670" height="505" viewBox="0 0 670 505" fill="none" xmlns="http://www.w3.org/2000/svg">
<path fill-rule="evenodd" clip-rule="evenodd" d="M519.452 4.76389C556.596 21.1383 539.639 83.4504 561.576 117.605C589.719 161.424 691.243 186.811 665.422 232.038C630.077 293.944 508.499 236.978 462.385 291.339C430.092 329.408 511.799 390.646 492.002 436.474C476.404 472.58 421.407 471.611 382.384 476.524C345.502 481.168 309.838 461.065 272.786 464.076C223.491 468.082 170.156 525.623 129.787 497.051C88.3435 467.718 133.097 392.374 108.624 347.887C86.7803 308.179 13.6629 309.344 2.38219 265.451C-8.46739 223.235 40.7612 188.686 57.3496 148.379C71.8711 113.093 62.225 61.6969 94.5679 41.4519C131.315 18.4499 180.145 49.9329 223.167 44.5856C250.491 41.1895 272.185 17.3178 299.685 15.9574C327.138 14.5994 351.057 38.2992 378.508 36.9011C427.164 34.4228 474.872 -14.8888 519.452 4.76389Z" fill="#FFD700"/>
</svg>
