<svg width="405" height="332" viewBox="0 0 405 332" fill="none" xmlns="http://www.w3.org/2000/svg">
<path fill-rule="evenodd" clip-rule="evenodd" d="M103.632 190.368C89.2627 161.521 17.3772 184.919 2.51046 156.297C-7.9016 136.251 35.8037 117.268 58.0179 102.55C76.8207 90.0922 107.082 93.8835 121.349 77.5603C139.271 57.0542 119.372 21.6452 142.704 5.65609C162.748 -8.0799 189.049 12.2664 212.712 14.9512C232.282 17.1717 252.978 14.7421 271.266 20.2426C289.266 25.6566 308.929 32.3815 318.012 46.6229C327.485 61.4752 320.067 81.3639 321.44 98.9105C322.43 111.572 316.165 127.03 325.038 136.468C345.552 158.29 393.284 158.606 403.265 185.954C410.34 205.34 375.626 222.54 363.509 241.878C349.79 263.772 348.458 291.853 326.539 308.402C305.016 324.653 272.61 335.725 247.307 329.611C217.316 322.365 215.941 274.404 183.982 273.96C148.598 273.468 126.779 329.472 91.6619 327.448C64.4749 325.881 55.4125 290.461 57.4899 266.669C59.9133 238.917 115.792 214.78 103.632 190.368Z" fill="#FFD700"/>
</svg>
