<svg width="392" height="403" viewBox="0 0 392 403" fill="none" xmlns="http://www.w3.org/2000/svg">
<path fill-rule="evenodd" clip-rule="evenodd" d="M125.104 371.403C100.212 334.803 158.967 281.386 136.804 243.098C109.743 196.351 16.4017 211.369 2.34305 159.335C-9.41725 115.808 49.3677 83.4225 87.0149 58.8194C120.633 36.8491 161.678 37.5566 201.131 29.4239C246.535 20.0646 294.131 -14.3898 335.099 7.68082C375.992 29.7112 394.862 85.4996 390.436 131.409C386.433 172.927 329.681 187.801 314.012 226.399C302.932 253.695 328.396 285.672 316.818 312.761C301.658 348.232 278.271 385.334 241.241 396.661C202.553 408.495 147.923 404.956 125.104 371.403Z" fill="#FFD700"/>
</svg>
